<svg version="1.1" id="Layer_1" xmlns="http://www.w3.org/2000/svg" xmlns:xlink="http://www.w3.org/1999/xlink" x="0px" y="0px"
	 width="100%" viewBox="0 0 1080 1080" enable-background="new 0 0 1080 1080" xml:space="preserve">

<path fill="#0C0A09" opacity="1.000000" stroke="none" 
	d="
M454.999939,718.340271 
	C424.174408,718.307007 393.845551,718.544250 363.524292,718.167175 
	C330.624878,717.758118 301.057312,687.797791 300.992493,654.898621 
	C300.838562,576.751526 300.749451,498.603607 300.957886,420.456909 
	C301.077606,375.565765 331.356964,320.045959 393.120056,306.256470 
	C408.861389,302.741974 424.659027,299.469238 440.476898,296.316650 
	C443.862305,295.641907 447.447601,295.855438 450.940887,295.853638 
	C500.095428,295.828125 549.255188,296.240631 598.401550,295.606598 
	C614.605042,295.397522 629.229553,299.429077 643.594788,305.918152 
	C686.489807,325.294800 711.153076,359.411377 722.951294,403.971222 
	C730.694946,433.217346 732.707092,463.061646 731.880920,493.123444 
	C730.977966,525.976440 727.448669,558.640747 720.052856,590.646545 
	C708.424133,640.969727 677.606384,676.376892 631.820374,699.072998 
	C603.905090,712.910583 574.235352,719.052307 542.976074,718.458374 
	C513.827148,717.904480 484.659393,718.340088 454.999939,718.340271 
M409.005829,501.369049 
	C407.514038,507.681915 405.922516,513.973083 404.546997,520.311218 
	C396.857391,555.743225 389.213654,591.185120 381.575195,626.628174 
	C380.854950,629.970276 380.954407,633.277466 384.983917,634.286804 
	C388.958252,635.282288 390.536682,632.392700 391.736389,629.223633 
	C395.150574,620.204956 398.355042,611.094482 402.125824,602.225830 
	C409.883636,583.979797 418.144501,565.938721 430.977631,550.557434 
	C433.358063,547.704346 437.155151,546.033203 440.298370,543.816528 
	C441.581146,547.467041 443.218201,551.037170 444.068695,554.785767 
	C445.570068,561.403381 445.776733,568.416016 447.999603,574.745605 
	C451.625671,585.070740 460.501526,588.211304 469.560181,582.125244 
	C476.373779,577.547546 482.331848,571.543701 488.111145,565.627930 
	C492.712128,560.918335 496.467224,555.382324 501.521851,549.056824 
	C500.978210,551.815002 500.704102,553.179138 500.440918,554.545471 
	C498.868988,562.705688 497.107422,570.836121 495.811737,579.040039 
	C495.180634,583.036255 494.161591,588.027710 499.586426,589.580688 
	C504.886871,591.098083 506.630035,586.366699 508.668060,582.816284 
	C516.453369,569.253540 524.109863,555.616455 531.958801,542.090881 
	C534.476318,537.752747 537.439819,533.673401 540.118958,529.597900 
	C541.024841,539.002563 541.547546,548.108765 542.904297,557.088989 
	C543.677063,562.204041 545.719727,567.642517 551.765991,568.556396 
	C558.072937,569.509583 561.411316,564.642456 563.927429,559.886292 
	C568.903259,550.480469 573.447449,540.846619 578.202271,531.322998 
	C579.040039,529.645142 580.034241,528.045288 580.976501,526.373352 
	C582.446350,532.818481 583.228638,538.950806 585.272095,544.629211 
	C589.155701,555.420837 598.551697,559.586609 609.420776,555.902588 
	C612.078613,555.001709 614.985352,554.059021 617.038025,552.281433 
	C626.693848,543.919861 636.162476,535.336792 645.530334,526.651978 
	C647.728577,524.614075 647.878845,521.759399 645.435791,519.583130 
	C643.031372,517.441223 640.469727,517.943542 638.328491,520.148682 
	C634.151978,524.449951 630.436157,529.289001 625.844238,533.073914 
	C619.990540,537.898804 613.806152,542.565002 607.118713,546.066711 
	C600.588623,549.485962 596.370605,547.166504 593.926392,540.266907 
	C592.937256,537.474609 592.250732,534.498352 591.956665,531.552917 
	C591.411255,526.090576 591.633484,520.527649 590.755554,515.133667 
	C590.393311,512.908203 588.387817,509.932129 586.452820,509.266998 
	C584.519592,508.602509 581.091614,509.723175 579.477295,511.270081 
	C576.777649,513.857056 574.644104,517.221130 572.899353,520.583496 
	C567.537048,530.917114 562.494385,541.416321 557.273071,551.823853 
	C556.226135,553.910767 554.938965,555.877258 553.762634,557.899292 
	C552.011292,553.868713 551.031311,550.130676 550.943909,546.371826 
	C550.730774,537.214661 550.964722,528.047729 550.948059,518.884888 
	C550.941895,515.486145 550.751892,511.923157 546.836304,510.601959 
	C542.809692,509.243317 540.668091,512.172607 538.814392,514.977844 
	C530.741211,527.195435 522.756958,539.471802 514.737122,551.724609 
	C513.819519,553.126587 512.881653,554.515259 511.953217,555.910095 
	C511.533539,555.717651 511.113892,555.525208 510.694214,555.332764 
	C511.006073,553.797302 511.200867,552.226807 511.649170,550.732239 
	C514.228149,542.133911 516.659851,533.483154 519.546631,524.987854 
	C522.219604,517.121887 525.385925,509.422943 528.366455,501.662506 
	C529.541260,498.603577 529.970398,495.561584 526.417908,493.978241 
	C522.595154,492.274445 520.556030,494.754608 519.148621,497.949127 
	C518.813538,498.709717 518.434448,499.461548 518.200012,500.254181 
	C515.057251,510.879120 509.445496,520.205078 503.027832,529.102051 
	C496.115051,538.685425 489.442535,548.460632 482.128967,557.728943 
	C478.141144,562.782654 473.379150,567.375854 468.365417,571.434448 
	C460.754913,577.594971 457.292206,576.151062 455.300415,566.493225 
	C454.530518,562.760132 454.589844,558.860901 453.903625,555.104492 
	C453.072021,550.552307 452.430725,545.829651 450.673492,541.611389 
	C447.378571,533.701965 440.238983,531.367065 433.109467,536.083557 
	C428.614441,539.057251 424.288757,542.876465 421.186188,547.240051 
	C415.129883,555.757935 409.992737,564.928589 404.452484,573.814941 
	C403.722748,574.985352 402.861115,576.073547 402.060577,577.199829 
	C401.663452,574.702698 402.349518,572.899780 402.783234,571.038086 
	C409.538788,542.041321 416.505035,513.090515 422.900513,484.014221 
	C426.710083,466.694489 432.219879,450.293243 441.014191,434.702789 
	C452.945557,413.550995 463.210114,391.470795 470.419952,368.186371 
	C472.560944,361.271942 473.636383,353.931152 474.277130,346.703857 
	C474.485321,344.355499 472.247681,340.317383 470.244629,339.630585 
	C467.907928,338.829376 463.699097,339.976593 461.904022,341.829712 
	C458.026733,345.832306 454.217957,350.422241 452.075897,355.488434 
	C445.290466,371.536407 437.949036,387.539307 433.262787,404.244202 
	C424.328003,436.093872 417.080048,468.416718 409.005829,501.369049 
z"/>
<path fill="#FBFBFB" opacity="1.000000" stroke="none" 
	d="
M409.068817,500.956116 
	C417.080048,468.416718 424.328003,436.093872 433.262787,404.244202 
	C437.949036,387.539307 445.290466,371.536407 452.075897,355.488434 
	C454.217957,350.422241 458.026733,345.832306 461.904022,341.829712 
	C463.699097,339.976593 467.907928,338.829376 470.244629,339.630585 
	C472.247681,340.317383 474.485321,344.355499 474.277130,346.703857 
	C473.636383,353.931152 472.560944,361.271942 470.419952,368.186371 
	C463.210114,391.470795 452.945557,413.550995 441.014191,434.702789 
	C432.219879,450.293243 426.710083,466.694489 422.900513,484.014221 
	C416.505035,513.090515 409.538788,542.041321 402.783234,571.038086 
	C402.349518,572.899780 401.663452,574.702698 402.060577,577.199829 
	C402.861115,576.073547 403.722748,574.985352 404.452484,573.814941 
	C409.992737,564.928589 415.129883,555.757935 421.186188,547.240051 
	C424.288757,542.876465 428.614441,539.057251 433.109467,536.083557 
	C440.238983,531.367065 447.378571,533.701965 450.673492,541.611389 
	C452.430725,545.829651 453.072021,550.552307 453.903625,555.104492 
	C454.589844,558.860901 454.530518,562.760132 455.300415,566.493225 
	C457.292206,576.151062 460.754913,577.594971 468.365417,571.434448 
	C473.379150,567.375854 478.141144,562.782654 482.128967,557.728943 
	C489.442535,548.460632 496.115051,538.685425 503.027832,529.102051 
	C509.445496,520.205078 515.057251,510.879120 518.200012,500.254181 
	C518.434448,499.461548 518.813538,498.709717 519.148621,497.949127 
	C520.556030,494.754608 522.595154,492.274445 526.417908,493.978241 
	C529.970398,495.561584 529.541260,498.603577 528.366455,501.662506 
	C525.385925,509.422943 522.219604,517.121887 519.546631,524.987854 
	C516.659851,533.483154 514.228149,542.133911 511.649170,550.732239 
	C511.200867,552.226807 511.006073,553.797302 510.694214,555.332764 
	C511.113892,555.525208 511.533539,555.717651 511.953217,555.910095 
	C512.881653,554.515259 513.819519,553.126587 514.737122,551.724609 
	C522.756958,539.471802 530.741211,527.195435 538.814392,514.977844 
	C540.668091,512.172607 542.809692,509.243317 546.836304,510.601959 
	C550.751892,511.923157 550.941895,515.486145 550.948059,518.884888 
	C550.964722,528.047729 550.730774,537.214661 550.943909,546.371826 
	C551.031311,550.130676 552.011292,553.868713 553.762634,557.899292 
	C554.938965,555.877258 556.226135,553.910767 557.273071,551.823853 
	C562.494385,541.416321 567.537048,530.917114 572.899353,520.583496 
	C574.644104,517.221130 576.777649,513.857056 579.477295,511.270081 
	C581.091614,509.723175 584.519592,508.602509 586.452820,509.266998 
	C588.387817,509.932129 590.393311,512.908203 590.755554,515.133667 
	C591.633484,520.527649 591.411255,526.090576 591.956665,531.552917 
	C592.250732,534.498352 592.937256,537.474609 593.926392,540.266907 
	C596.370605,547.166504 600.588623,549.485962 607.118713,546.066711 
	C613.806152,542.565002 619.990540,537.898804 625.844238,533.073914 
	C630.436157,529.289001 634.151978,524.449951 638.328491,520.148682 
	C640.469727,517.943542 643.031372,517.441223 645.435791,519.583130 
	C647.878845,521.759399 647.728577,524.614075 645.530334,526.651978 
	C636.162476,535.336792 626.693848,543.919861 617.038025,552.281433 
	C614.985352,554.059021 612.078613,555.001709 609.420776,555.902588 
	C598.551697,559.586609 589.155701,555.420837 585.272095,544.629211 
	C583.228638,538.950806 582.446350,532.818481 580.976501,526.373352 
	C580.034241,528.045288 579.040039,529.645142 578.202271,531.322998 
	C573.447449,540.846619 568.903259,550.480469 563.927429,559.886292 
	C561.411316,564.642456 558.072937,569.509583 551.765991,568.556396 
	C545.719727,567.642517 543.677063,562.204041 542.904297,557.088989 
	C541.547546,548.108765 541.024841,539.002563 540.118958,529.597900 
	C537.439819,533.673401 534.476318,537.752747 531.958801,542.090881 
	C524.109863,555.616455 516.453369,569.253540 508.668060,582.816284 
	C506.630035,586.366699 504.886871,591.098083 499.586426,589.580688 
	C494.161591,588.027710 495.180634,583.036255 495.811737,579.040039 
	C497.107422,570.836121 498.868988,562.705688 500.440918,554.545471 
	C500.704102,553.179138 500.978210,551.815002 501.521851,549.056824 
	C496.467224,555.382324 492.712128,560.918335 488.111145,565.627930 
	C482.331848,571.543701 476.373779,577.547546 469.560181,582.125244 
	C460.501526,588.211304 451.625671,585.070740 447.999603,574.745605 
	C445.776733,568.416016 445.570068,561.403381 444.068695,554.785767 
	C443.218201,551.037170 441.581146,547.467041 440.298401,543.816528 
	C437.155151,546.033203 433.358063,547.704346 430.977631,550.557434 
	C418.144501,565.938721 409.883636,583.979797 402.125824,602.225830 
	C398.355042,611.094482 395.150574,620.204956 391.736389,629.223633 
	C390.536682,632.392700 388.958252,635.282288 384.983917,634.286804 
	C380.954407,633.277466 380.854950,629.970276 381.575195,626.628174 
	C389.213654,591.185120 396.857391,555.743225 404.546997,520.311218 
	C405.922516,513.973083 407.514038,507.681915 409.068817,500.956116 
M461.340729,364.910004 
	C461.853333,363.333252 462.426117,361.772919 462.861389,360.175110 
	C463.288483,358.607330 463.575775,357.001465 463.924438,355.412323 
	C452.837006,372.174927 446.979218,390.879059 441.885132,409.902283 
	C449.686188,395.758606 456.048615,380.998260 461.340729,364.910004 
M511.050659,557.959412 
	C511.151245,557.313721 511.251862,556.668091 511.352448,556.022400 
	C510.986298,556.023132 510.620148,556.023804 510.253998,556.024475 
	C510.363586,556.892578 510.473175,557.760681 511.050659,557.959412 
z"/>
<path fill="#606060" opacity="1.000000" stroke="none" 
	d="
M461.226654,365.289978 
	C456.048615,380.998260 449.686188,395.758606 441.885132,409.902283 
	C446.979218,390.879059 452.837006,372.174927 463.924438,355.412323 
	C463.575775,357.001465 463.288483,358.607330 462.861389,360.175110 
	C462.426117,361.772919 461.853333,363.333252 461.226654,365.289978 
z"/>
<path fill="#545454" opacity="1.000000" stroke="none" 
	d="
M510.816711,558.294067 
	C510.473175,557.760681 510.363586,556.892578 510.253998,556.024475 
	C510.620148,556.023804 510.986298,556.023132 511.352448,556.022400 
	C511.251862,556.668091 511.151245,557.313721 510.816711,558.294067 
z"/>
</svg>